/* XPM */
static char *_426846e8565424bbdefd5d5993f4a85AAA9rlxtbfdkRLkb[] = {
/* columns rows colors chars-per-pixel */
"50 50 228 2 ",
"   c #3C4D19",
".  c #384625",
"X  c #4A5A06",
"o  c #515B12",
"O  c #486A0E",
"+  c #446617",
"@  c #58721A",
"#  c #587507",
"$  c #6B7A1C",
"%  c #6C7D0D",
"&  c #465834",
"*  c #4B6A28",
"=  c #55692C",
"-  c #4B7122",
";  c #567525",
":  c #576C33",
">  c #597133",
",  c #646D23",
"<  c #697B28",
"1  c #697B36",
"2  c #777C3A",
"3  c #3D7D62",
"4  c #5F6F48",
"5  c #5C7143",
"6  c #767C46",
"7  c #677554",
"8  c #63734C",
"9  c #767C6E",
"0  c #5F800F",
"q  c #6F840F",
"w  c #68871F",
"e  c #5F8637",
"r  c #698925",
"t  c #73882B",
"y  c #75972B",
"u  c #6A8934",
"i  c #748433",
"p  c #738A3C",
"a  c #798D38",
"s  c #7A9637",
"d  c #6F9325",
"f  c #7DA029",
"g  c #6B8345",
"h  c #7A8846",
"j  c #7B944B",
"k  c #7A9746",
"l  c #7B8A57",
"z  c #7A9557",
"x  c #7FA54D",
"c  c #779269",
"v  c #75A975",
"b  c #879727",
"n  c #849836",
"m  c #929E3A",
"M  c #84A53B",
"N  c #859344",
"B  c #829A4A",
"V  c #919B4E",
"C  c #939548",
"Z  c #858956",
"A  c #8B925C",
"S  c #899C5A",
"D  c #83894B",
"F  c #8AA648",
"G  c #93AE47",
"H  c #95A949",
"J  c #98BA46",
"K  c #89A655",
"L  c #94A756",
"P  c #89B256",
"I  c #9CBA56",
"U  c #A3B142",
"Y  c #A4BA56",
"T  c #ABB35E",
"R  c #8E9A63",
"E  c #859468",
"W  c #94996A",
"Q  c #8A9375",
"!  c #989E77",
"~  c #8DA56A",
"^  c #8BA964",
"/  c #95AD64",
"(  c #96A568",
")  c #97B66A",
"_  c #8CA273",
"`  c #9BA575",
"'  c #94A874",
"]  c #9DAC76",
"[  c #9BA87C",
"{  c #9BB373",
"}  c #9EB77A",
"|  c #A4BA66",
" . c #A5BA6D",
".. c #A7B669",
"X. c #B2BD6F",
"o. c #A5AA78",
"O. c #A6B777",
"+. c #B3BF7E",
"@. c #B2B572",
"#. c #A6A467",
"$. c #9CC548",
"%. c #9EC550",
"&. c #A5CA4D",
"*. c #A8C958",
"=. c #B4CB58",
"-. c #ABD153",
";. c #AED45B",
":. c #B9D55B",
">. c #ACC464",
",. c #AEC964",
"<. c #A9C469",
"1. c #B1C56B",
"2. c #BBCB6B",
"3. c #B5CA66",
"4. c #ADD163",
"5. c #BAD367",
"6. c #A7C376",
"7. c #B3C27A",
"8. c #B7C776",
"9. c #A9D47D",
"0. c #BCD675",
"q. c #BED67B",
"w. c #C2CC68",
"e. c #C8D868",
"r. c #D2DD6D",
"t. c #C2CC73",
"y. c #C4D678",
"u. c #D3D976",
"i. c #C6E278",
"p. c #DBE777",
"a. c #D4E47A",
"s. c #D3E26D",
"d. c #548E80",
"f. c #5B9181",
"g. c #6FAA8A",
"h. c #929983",
"j. c #989A95",
"k. c #9AA785",
"l. c #83BF85",
"z. c #9BB485",
"x. c #9FA990",
"c. c #8EB191",
"v. c #A8AF8E",
"b. c #ABB38B",
"n. c #A7B486",
"m. c #A3A798",
"M. c #B1BD98",
"N. c #BBBD9A",
"B. c #B2B792",
"V. c #A8AFA0",
"C. c #B6B7AA",
"Z. c #B8BAB9",
"A. c #98C98A",
"S. c #98D091",
"D. c #ADC88C",
"F. c #AACB85",
"G. c #B6C283",
"H. c #BBC987",
"J. c #B8D584",
"K. c #B9C696",
"L. c #B7C396",
"P. c #B7D797",
"I. c #ADD18B",
"U. c #BEC4A4",
"Y. c #BFD1AB",
"T. c #C3CF8D",
"R. c #CDD584",
"E. c #C7DF81",
"W. c #CCD68B",
"Q. c #CBDC87",
"!. c #D3DB84",
"~. c #D4D88C",
"^. c #CBCF94",
"/. c #C2C99A",
"(. c #CBD895",
"). c #D8DD98",
"_. c #CEE385",
"`. c #D3E48D",
"'. c #D7E584",
"]. c #D4E499",
"[. c #E3E699",
"{. c #CAD7AA",
"}. c #CACDB6",
"|. c #CDD6BB",
" X c #D6DBB4",
".X c #C7CEA4",
"XX c #D1E3A8",
"oX c #CFE5B7",
"OX c #E0E8BF",
"+X c #ECEEBF",
"@X c #E5F3B9",
"#X c #BBEDC8",
"$X c #BAE5D5",
"%X c #CFD4C0",
"&X c #D3DAC1",
"*X c gray79",
"=X c #DAE6C6",
"-X c #DCF0CD",
";X c #DEE1DA",
":X c #CDFCC6",
">X c #E4EAC8",
",X c #E9F5CC",
"<X c #E3EDD6",
"1X c #E8FCD7",
"2X c #F6FED4",
"3X c #F5FEDD",
"4X c #FBFEDC",
"5X c #F0F6DC",
"6X c #DFFFEA",
"7X c #ECEDE3",
"8X c #EAE7E5",
"9X c #F2EEED",
"0X c #EDF7E5",
"qX c #F3FFE3",
"wX c #FBFEE4",
"eX c #F3F5EA",
"rX c #F5FDEB",
"tX c #FCFEEC",
"yX c #F4F7E2",
"uX c #EEF5F8",
"iX c #F5F5F4",
"pX c #FBF7F4",
"aX c #F5FCF3",
"sX c #FCFEF5",
"dX c #F7F6FA",
"fX c #FAF6FA",
"gX c #F5FCFD",
"hX c #FEFEFD",
/* pixels */
"hXhXdXhXhXhXdXhXhXhXhXhXdXhXhXhXuXhXhXiXhXhXdXhXhXdXhXfXhXhXpXaXhXhXhXhXsXsXpXhXhXhXhXdXfXhXhXhXhXhX",
"hXhXhXhXhXhXhXhXhXhXhXdXhXhXhXhXhXuXhXpXpXhXhXhXhXhXhXiXhXfXsXsXgXhXfXpXsXhXsXgXsXhXhXhXhXhXhXhXhXhX",
"hXhXhXhXhXhXhXhXhXhXhXhXhXhXhXdXpXpXpXsXsXhXhXhXsXhXpXhXhXdXgXhXhXhXgXhXhXhXhXhXhXhXhXhXhXhXhXhXhXhX",
"hXhXhXhXhXhXhXhXhXhXhXhXhXhXhXhXsXpXhXeXpXsX8XsXsXhXsXhXhXhXgXhXhXhXhXhXhXhXhXhXhXhXhXhXhXhXhXhXhXhX",
"hXhXhXhXhXhXhXhXhXhXhXhXhXhXhXhXhXhXaXhXhXhXsXsXaXhXiXiXgXhXgXhXhXhXhXhXhXhXhXhXhXhXhXhXhXhXhXhXhXhX",
"hXhXhXhXhXhXhXhXhXhXhXhXhXhXhXhXhXgXhXgXaXaX7XsXsX0XaXsXgXiXhXhXhXhXgXhXhXhXhXhXhXhXhXhXhXhXhXhXhXhX",
"hXhXhXhXhXhXhXhXhXhXhXhXhXhXhXhXgXhXuXgXgXaXtXwX<X|.=X3XtXtXhXfXhXhXgXhXhXhXhXhXhXhXhXhXhXhXhXhXhXhX",
"hXhXhXhXhXhXhXhXhXhXhXhXhXhXhXhXhXgXgXgXaXrX>X` W +.] ` OXwXpXfXsXhXhXhXhXhXhXhXhXhXhXhXhXhXhXhXhXhX",
"hXhXhXhXhXhXhXhXhXhXhXhXhXhXhXhXhXiXhXsXrX,XA (.W.].I.P.R 2XsXpXtXsXsXsXhXhXhXhXhXhXsXhXhXhXhXhXhXhX",
"hXhXhXhXhXhXhXhXhXhXhXhXhXhXhXhXsXpXhXsX4XA G.W.8.g - ) G.K.tXtXwXwXtXtXsXsXhXhXhXhXhXhXhXhXhXhXhXhX",
"hXhXhXhXhXhXhXhXhXhXhXhXhXhXhXhXsXpXeXwXK.2 X.{ * c.1XA.A.z n.n./. X4X4XsXsXsXhXhXhXhXhXhXhXhXhXhXhX",
"hXhXhXhXhXhXhXhXhXhXhXhXhXhXhXhXhXsXaX{.p B ) ^ c 6X#Xg.l.v P.XXT.+.o.B.tXsXpXhXhXhXhXhXhXhXhXhXhXhX",
"hXhXhXhXhXhXhXhXhXhXhXhXhXhXhXhXhXsXqXz u I <.^ g.$Xc 3 l.A.9.3.1.!.^././.sXsXhXhXhXhXhXhXhXhXhXhXhX",
"hXhXhXhXhXhXhXhXhXhXhXhXhXhXhXhXiXeX1X6 F 4.>.P g.$Xd.g.S.9.0.e.u.t.~.A Q tXsXpXhXhXhXhXhXhXhXhXhXhX",
"hXhXhXhXhXhXhXhXhXhXhXhXhXhXhXhXsXtX=Xg J *.=.5.l 1X#X:XF.E.2.u.w.u.R.2 W 4XtXhXhXhXhXhXhXhXhXhXhXhX",
"hXhXhXhXhXhXhXhXhXhXhXhXhXhXhXhXhXtX[ g G e.e.5.6.S P.F.J.!.u.u.r.u.!.^.o.wXsXhXhXhXhXhXhXhXhXhXhXhX",
"hXhXpXhXhXhXhXhXhXhXhXhXhXhXhXhXsXwXW N e.r.r.p.t.K N B ..t.!.!.u.!.^.^.N.tXeXhXhXhXhXhXhXhXhXhXhXhX",
"sXhXhXhXsXhXhXhXhXhXhXhXhXhXhXfXsX4X6 T e.p.r.u.'.!.V X , 2 V 8.R.~.^.W wXtXsXhXhXhXhXhXhXhXhXhXhXhX",
"sXaXhXdXhXhXhXhXhXhXsXsXhXhXhXfXfXwXA D w.e.s.p.!.[.~.[...C o D , D 6 >XwXsXpXhXhXhXhXpXsXhXhXhXpXfX",
"sXhXhXdXhXhXhXhXsXsXsXsXpXhXhXfX9XtXo.L U :.e.e.u.t.~.[.).).@XG.o.Z  XwXtXsXhXhXhXhXhXsXpXhXhXhXhXhX",
"sXhXhXfXhXhXhXhXsXsXsXsXsXhXhXhXfXsX` 7.Y q b U w.C C #.@.b.^..Xb.! wXtXsXhXdXhXhXhXhXsXhXhXhXhXsXhX",
"hXhXhXdXhXhXfXfXhXsXsXsXhXhXhXfXfXeXB.7.t.=.% b T ~.@.^.>X XN.}.}.tXtXsXhXfXhXfXhXhXhXhXhXsXhXsXhXhX",
"hXhXhXhXhXsXsXhXsXpXhXhXhXhXgXhXsXtX` A `.3.m $ !.t.7.R 4XtXsXpXsXsX9XhXhXhXhXhXhXhXhXsXhXhXhXhXhXhX",
"hXhXhXhXaXsXeXeXsXaXpXaXsXaXsXsXqXoX{ L T y.C $ L < 1 l b.yXsX9XsXsXsXhXdXfXhXhXhXhXhXhXhXhXhXhXhXhX",
"hXhXhXsXsXrX|.%X0XtXrXtXrX3XwX1X~ j k k @ 2.< O < .. .: [ tXeXhXsXhXhXhXhXhXhXhXhXhXhXhXhXhXhXhXiXdX",
"gXhXgXrXrXsXh.k.Q L.2X2X2X@X] S ) O F I r 2.y.i.| X. .j   5XaXhXsXsXhXhXhXpXhXhXhXhXhXhXhXhXhXhXhXhX",
"iXaXgXhXhXrXx.U.n.} h B p L  .I w y %.J &.d F M ,.y.3.i g l 5XaXhXhXhXhXsXsXhXhXhXhXhXhXhXhXhXhXhXhX",
"sXhXsXhXsXaX&Xv..X7.1.1.,.Y >.,.0 b J $.$.%.J M M s t L 1 ~ _ qXsXpXpXsXsXhXhXhXhXhXhXhXhXhXhXhXhXhX",
"sXsXhXhXhXsXrXM.n.].Q.1.Y 5.,.>.# f -.$.&.&.&.-.3._.`.u ^ } c -XhXsXhXhXhXhXhXhXhXhXhXhXhXhXhXhXhXhX",
"hXpXhXhXhXsXsXwXK.( (.`._.0.'.i.y M J -.$.&.-.;.I 0.s B / O.} {.aXhXhXhXhXhXsXhXhXhXhXhXhXsXhXsXgXdX",
"hXhXhXpXpXsXtXwXwX XW ( 8.y.Q.q.u s *.-.-.:.&.4.G w F k / { ~ L.sXhXdXhXhXhXhXhXhXhXhXhXgXsXsXpXhXhX",
"hXfXhXhXsXsXsXsXtXwXwXOXK.K.<.s - r x ;.=.:.:.5.I O + + ; z : D.rXhXhXhXhXhXhXhXhXhXhXhXhXhXhXhXhXgX",
"sXsXhXhXsXhXsXsXpXsXaXeXtX4X@X; r r y M =.=.p.y.P + - - ; k 6.D.rX0XaXsXsXhXdXhXhXhXhXhXhXhXhXhXhXhX",
"sXhXhXhXhXsXsXhXhXhXhXhXsX3X' p M %.s t n w.y._.) = + u P P ) F.,X=X-X<XhXhXhXhXhXhXsXhXhXhXhXhXhXsX",
"pXhXhXhXhXhXpXhXpXhXiXsXwX2X1 s -.;.| a 2 X.W.+.oX' * + x x ) ^ E . x.V.j.Z.dXhXhXhXsXhXsXhXhXhXhXhX",
"hXhXhXhXhXhXhXhXhXsXaXtX4XXXu G M &.0.H.( 2 o..XqX0X5 * x I.) ~ 4 c m.9 j.j.*XhXhXhXhXsXhXhXhXhXhXhX",
"hXhXhXhXhXhXhXhXiXpXsX0X[ H._.i.i.%.k = /.4XwXtXrXaXqX: ^ z { _ 7 7 h.V.;XhXhXhXhXsXhXsXsXhXhXhXhXhX",
"hXhXhXhXhXhXhXhXhXpXrXU.` G.7.<.<.F : ` |.C.tXeXgX0XaX: c g = 5 k.<XsXrXsXaXhXhXhXhXsXsXhXsXsXhXhXhX",
"hXhXhXhXhXhXhXhXhXeXsXQ E R O. . .= ,X Xh.7Xm.hXhXaXrX. 8 z.<XrXrXrXrXeXhXgXhXsXhXsXsXhXhXsXhXhXhXhX",
"gXhXhXhXhXhXhXhXsXhXpX}.v.b.O.O.] v.C.C.m.C.C.8XhXhXaX0XrXtXrXsXpXsXaXhXhXhXiXhXhXhXhXsXhXhXsXhXhXhX",
"hXhXhXhXhXhXsXhXhXhXsXsXsXtXtXwXrXrXhXsXsXsXsXsXdXhXpXgXaXaXhXhXsXaXsXhXhXhXhXhXhXhXhXhXhXhXhXhXhXhX",
"hXhXhXsXsXsXhXsXhXhXhXsXsXsXsXsXsXgXhXhXsXsXsXhXhXdXhXgXsXhXhXhXhXhXhXhXhXhXhXhXhXhXhXhXhXhXhXhXhXhX",
"hXhXhXhXsXsXsXhXhXhXhXhXhXhXhXhXgXhXhXhXhXhXhXhXhXdXhXhXhXhXaXsXhXhXhXhXhXhXhXhXhXhXhXhXhXhXhXhXhXhX",
"hXhXhXhXsXsXhXhXhXhXhXhXhXhXhXhXhXhXhXhXhXhXhXhXhXhXhXhXhXhXhXhXhXhXhXhXhXhXhXhXhXhXhXhXhXhXhXhXhXhX",
"hXhXhXsXsXhXhXhXhXhXhXhXhXhXhXhXhXsXhXhXgXhXhXhXhXhXhXhXhXhXhXhXhXhXhXhXhXhXhXhXhXhXhXhXhXhXhXhXhXhX",
"hXhXhXsXsXsXhXhXhXhXhXhXhXhXhXhXhXhXhXhXhXhXgXgXhXhXsXhXhXhXhXhXhXhXhXhXhXhXhXhXhXhXhXhXhXhXhXhXhXhX",
"hXhXhXsXhXhXhXhXhXhXhXsXsXsXhXhXsXsXhXhXhXgXgXhXsXsXsXsXgXhXhXhXhXhXhXhXhXhXhXhXhXhXhXhXhXhXhXhXhXhX",
"hXhXhXsXsXhXhXhXhXhXsXsXsXsXsXhXhXsXhXhXgXhXhXhXsXsXsXsXhXhXhXhXhXhXhXhXhXsXhXhXhXhXhXhXhXhXhXhXhXhX",
"hXhXhXhXhXhXhXhXhXsXhXsXsXhXhXhXsXhXaXhXhXhXhXhXhXsXhXhXhXhXhXhXhXhXhXhXhXhXhXhXhXhXhXhXhXhXhXhXhXhX",
"hXhXhXhXhXhXhXhXhXhXsXhXsXhXhXhXhXhXhXhXhXhXhXhXsXhXhXhXhXhXhXhXhXhXhXhXhXhXhXhXhXhXhXhXhXhXhXhXhXhX"
};
