/* XPM */
static char * texture_sprite_go_r_2_xpm[] = {
"49 49 220 2",
"  	c #FFFFFF",
". 	c #FCFCF5",
"+ 	c #FEFBEB",
"@ 	c #E7E2D9",
"# 	c #FFF6DB",
"$ 	c #FFFAD5",
"% 	c #FFFBE5",
"& 	c #DCD6B8",
"* 	c #FFFBDD",
"= 	c #F5E3B5",
"- 	c #E4CC8D",
"; 	c #EBD998",
"> 	c #FFF4CB",
", 	c #989C96",
"' 	c #95949A",
") 	c #9A9BA6",
"! 	c #B4B4B4",
"~ 	c #E7D8B7",
"{ 	c #EEE5C2",
"] 	c #E5C983",
"^ 	c #E2CF70",
"/ 	c #D9C66A",
"( 	c #F8E597",
"_ 	c #948A7A",
": 	c #5A564B",
"< 	c #4A4B44",
"[ 	c #6A6B6A",
"} 	c #8E9198",
"| 	c #777575",
"1 	c #74746D",
"2 	c #ABABAB",
"3 	c #E9E9E7",
"4 	c #DCD39D",
"5 	c #FFF4BA",
"6 	c #DBC756",
"7 	c #E0CC5B",
"8 	c #F4DA89",
"9 	c #F5D999",
"0 	c #9A8B67",
"a 	c #3B3615",
"b 	c #524D33",
"c 	c #564B38",
"d 	c #4B443A",
"e 	c #6F746D",
"f 	c #7A7B84",
"g 	c #FEFEFE",
"h 	c #8D918B",
"i 	c #4B4B4A",
"j 	c #D2D2CD",
"k 	c #FFFAC8",
"l 	c #E5D29D",
"m 	c #E8D8A9",
"n 	c #F8E7A8",
"o 	c #F7E46D",
"p 	c #F7E47A",
"q 	c #BCA47D",
"r 	c #746745",
"s 	c #4B462C",
"t 	c #454544",
"u 	c #8B8A94",
"v 	c #8B8B8B",
"w 	c #FCEBB4",
"x 	c #E9D59C",
"y 	c #F7E9C6",
"z 	c #EAD78B",
"A 	c #F9E487",
"B 	c #FFF0A8",
"C 	c #B9AA88",
"D 	c #4A4539",
"E 	c #6C6B72",
"F 	c #848382",
"G 	c #7D7D7C",
"H 	c #53524C",
"I 	c #4E514B",
"J 	c #45433C",
"K 	c #ACAAA4",
"L 	c #F5DEA2",
"M 	c #5C5A59",
"N 	c #7E8480",
"O 	c #A4A3A4",
"P 	c #ECECEC",
"Q 	c #555353",
"R 	c #453E37",
"S 	c #E3CCA9",
"T 	c #F1DBAB",
"U 	c #FEE6AA",
"V 	c #8B7852",
"W 	c #83837C",
"X 	c #D0CED1",
"Y 	c #554D44",
"Z 	c #7D715B",
"` 	c #FBE8B6",
" .	c #A6976A",
"..	c #BEAA7C",
"+.	c #66583A",
"@.	c #F1E8D9",
"#.	c #69582A",
"$.	c #949494",
"%.	c #8A8A84",
"&.	c #524B54",
"*.	c #4E4A52",
"=.	c #48454B",
"-.	c #42361C",
";.	c #EEE3B1",
">.	c #686559",
",.	c #3B3625",
"'.	c #FEFEFC",
").	c #363838",
"!.	c #C4B488",
"~.	c #FDF5D4",
"{.	c #DEE1E6",
"].	c #B1ADA8",
"^.	c #736D65",
"/.	c #7A7768",
"(.	c #625C53",
"_.	c #524F4C",
":.	c #8C8588",
"<.	c #938B8B",
"[.	c #362D29",
"}.	c #BAB395",
"|.	c #BCBCBC",
"1.	c #B7B5A9",
"2.	c #7B7974",
"3.	c #BBB9B5",
"4.	c #9CA097",
"5.	c #93928C",
"6.	c #66656B",
"7.	c #A39994",
"8.	c #2A2623",
"9.	c #3D3B40",
"0.	c #44382A",
"a.	c #E5D9C6",
"b.	c #655F4F",
"c.	c #877B6A",
"d.	c #F4F2ED",
"e.	c #827E7C",
"f.	c #E7E7E9",
"g.	c #9C9B9C",
"h.	c #5E605D",
"i.	c #D6C5AC",
"j.	c #877A58",
"k.	c #6C694A",
"l.	c #8B837A",
"m.	c #DEDCDD",
"n.	c #F4EFF2",
"o.	c #CAC6C5",
"p.	c #DDDAD5",
"q.	c #AAA6A6",
"r.	c #D2C390",
"s.	c #261B0B",
"t.	c #D6D4D5",
"u.	c #BEBDC5",
"v.	c #140200",
"w.	c #0C0100",
"x.	c #0C0800",
"y.	c #29271C",
"z.	c #2B1100",
"A.	c #1B0A03",
"B.	c #9EA18F",
"C.	c #878166",
"D.	c #E3BD7E",
"E.	c #AC8C53",
"F.	c #452B06",
"G.	c #968B84",
"H.	c #191304",
"I.	c #9D977C",
"J.	c #A9A499",
"K.	c #C6B598",
"L.	c #D0AA63",
"M.	c #C39D5E",
"N.	c #E7CB9C",
"O.	c #F4DDB9",
"P.	c #7A6739",
"Q.	c #C3AA7B",
"R.	c #AB9874",
"S.	c #D1BC97",
"T.	c #D7BE86",
"U.	c #5F4709",
"V.	c #B5A670",
"W.	c #B19D59",
"X.	c #6D522F",
"Y.	c #AAA28B",
"Z.	c #DFCDAE",
"`.	c #876F34",
" +	c #39250D",
".+	c #887C73",
"++	c #A18560",
"@+	c #583A18",
"#+	c #9C7F61",
"$+	c #352818",
"%+	c #756657",
"&+	c #A39787",
"*+	c #281E16",
"=+	c #CCC9C5",
"-+	c #AEAEB1",
";+	c #4D2F13",
">+	c #2C2214",
",+	c #EBE6E4",
"'+	c #775D46",
")+	c #928476",
"!+	c #F3EDEC",
"~+	c #D8C899",
"{+	c #E5E4E5",
"]+	c #B2AB9A",
"^+	c #C4BEB8",
"/+	c #FEF5E4",
"(+	c #C7C4BB",
"_+	c #999887",
":+	c #B8B6B6",
"<+	c #E9E6CE",
"[+	c #231B0E",
"}+	c #E1DED7",
"|+	c #C5C4C2",
"1+	c #1E1711",
"2+	c #D2CDCA",
"3+	c #CBCBCA",
"4+	c #E0DEDF",
"5+	c #E8E6E9",
"6+	c #F4F4F4",
"7+	c #FFFDFF",
"                                                                                                  ",
"                                                                                                  ",
"                                                                                                  ",
"                                                                                                  ",
"                                      .                                                           ",
"                                    . .                                           +               ",
"                                    + +                                           @               ",
"                                  # $ $ %                                       % & *             ",
"                                  = - ; >             , ' ) !                   * ~ {             ",
"                                = ] ^ / ( >     _ : < [ ) } | 1 2 3             $ 4 ~ *           ",
"                                5 / 6 7 8 9 0 a b c d e f } g h < i 1 j         k l m $           ",
"                                n ^ o o p ( l q r s : t f u 2 v [ t i < ,       w ; x y           ",
"                                k z p o p A B m C c D i E v F G F t H I J K   > ; ( L = +         ",
"                                * w z A A A ( w C c H H M N O P | Q t J Q R & S ( ( 9 T +         ",
"                                  # = - A A 8 U V c : < H W O X v t I H t Y Z ` ( A z T           ",
"                                  . #  .; ( ; ..c Y J H < W v F v < Q t H d +.m ( z ; >           ",
"                                    @.a #. .0 c D H < < H W W $.%.J &.*.=.Y -.4 n ; ;.#           ",
"                                    >.,.a c c Y H t I < i W K '.W ).=.&.&.Y s !.4 m ~.+           ",
"                                  {.1 ].^./.(.M _.i =.&.*.:.<.K [ [.=.*.=.Y s }.{ ~.+             ",
"                                  |.1.@ W 2.3.4.5.F 6.6.E u 7.<.F ).8.9.Q < 0.a.+ +               ",
"                                  , b._ c.^.d.|.W e.f.g.) ' :.<.F h.< t M H < 3..                 ",
"                                    i.0 j.+.k.l.5.<.m.! v v n.o.5.W p.g.e.! q.2                   ",
"                                    ~ = = ;.r.s.0.: Q 2.$.N q.' F 5.d.5.G f.t.u.                  ",
"                                    y 4 ; n m v.w.w.x.y.e 4.} ' ^.>.(.>.2.M i                     ",
"                                      T ; 9 9 z.A.v.w.b.c.B.v E A.w.w.C.i.                        ",
"                                      $ U ] D.E.F.A.c ~ { k.G.H.w.v.w.I.&                         ",
"                                  ! J.K.U ] L.M.N.O.O.y  .P.r H.A.v.A.K.                          ",
"                                  W ].0 l - 8 9 U 5 k = F.#.4 r.+.+.K.{                           ",
"                                4.B./.j.V Q.9 9 E.- U n U U 5 w ` q 0 ~                           ",
"                                J.1.I.0 R.m S.T.U.V.z W.] U ] L ` m X.r @.                        ",
"                                1.Y.j.!.S.Z.i.O.P.W.`.B ; N.`.N.N.q r  +.+                        ",
"                                  i.0 T S.S Z.K.P.T.z n 5 !.++@+F.+.R.-.c ].<.                    ",
"                                  j.!.T T Q.#+X.@+X.x x l R.#+ +$+%+&+s *+%.=+-+                  ",
"                                    r.w w N.q ;+;+X.S T ` V c.$+>+0.G.d [.H q.,+|.                ",
"                                    = m = ..K.C '+O.~ y O.C.Z $+%+%+G.)+_ : K !+!                 ",
"                                    m ~+ .C Y.c.a.# # { y _ )+%+&+)+&+_ c.Y K p.j {+              ",
"                                    { R.C }.]+)+^++ /+% + &+G.8.c 0.)+%+$+D W j @ 3.              ",
"                          2 v %._ }.& & j.I.7.l.e.J.7.]++ (+l.R >+$+c.c.$+R _+J.].W v (+          ",
"                        :+$.2 ].3.1.I.<+_+1.].g.F 1 2.>./.^.[.[.*+H.>+s.[+>+d }+p.K 8.|           ",
"                  2 F $.| :+:+|+^+$+>+[+_+K 3.$.t 8.8.y.y.8.*+1+[+s.[+*+*+J _.3.|+| g.j           ",
"                  ' f ' ' O o.(+K 1+y.8.^.W G f | [ >.>.].1.2+| l.,.$+(.^.!+2+=+@ 2               ",
"                  |+' ' F | ' -+p.      =+:.} M F ! 3+7.      ,+G..+^.2.p.. :+,+3 :+              ",
"                    :.2 3+$.                  X $.! 3.K         '.,+(+2+'.2+o.4+m.5+2             ",
"                    2 O 3+!                   3+G $.[ %.K         |+^+|.2 3.{+!+P 5+3+2           ",
"                    f.$.|+$.                  g.:+e.2 (+o.K       :+5+P 4+{+P m.P 4+P m.q.        ",
"                      O g.:+                  , 5.%.O :+|.:+q.    |+3+-+6+{+{+{+,+P 7+3.:+        ",
"                      t.t.                    3+^+-+O O g.$.-+      {+g.P g f.g P 3 :+|+          ",
"                                                                        3+! ].2 g.t.              ",
"                                                                                                  "};
