/* XPM */
static char * texture_sprite_go_l_1_xpm[] = {
"49 49 232 2",
"  	c #FFFFFF",
". 	c #DAD2C5",
"+ 	c #FFFDE3",
"@ 	c #ECE4C9",
"# 	c #DAD7BB",
"$ 	c #F7EBC9",
"% 	c #D5CCA7",
"& 	c #FDF6D5",
"* 	c #FFFBDB",
"= 	c #E7D7A9",
"- 	c #E4CA98",
"; 	c #FFFFFE",
"> 	c #FCFFFF",
", 	c #F8E8B7",
"' 	c #EAD59D",
") 	c #FBF6C6",
"! 	c #FEFEFF",
"~ 	c #FDFDEC",
"{ 	c #F8D998",
"] 	c #FFF3B8",
"^ 	c #BDBCBC",
"/ 	c #C2C2C3",
"( 	c #FDFDF4",
"_ 	c #FDFFFC",
": 	c #FEFFFE",
"< 	c #EBDBA0",
"[ 	c #FFE59D",
"} 	c #F4DA87",
"| 	c #FDE2AB",
"1 	c #FDF5CC",
"2 	c #CACAC6",
"3 	c #6A6668",
"4 	c #413F42",
"5 	c #444343",
"6 	c #545353",
"7 	c #4D4C4C",
"8 	c #AEAEB0",
"9 	c #BFBEC3",
"0 	c #868789",
"a 	c #999597",
"b 	c #F6E9C3",
"c 	c #ECDB9B",
"d 	c #ECE0B4",
"e 	c #898575",
"f 	c #3D4029",
"g 	c #4C4C44",
"h 	c #D4D4D3",
"i 	c #E4E5E4",
"j 	c #7B7A7D",
"k 	c #625F64",
"l 	c #524C4D",
"m 	c #E7E1DD",
"n 	c #F8E4A7",
"o 	c #8E815C",
"p 	c #534C44",
"q 	c #4E524E",
"r 	c #48463A",
"s 	c #737372",
"t 	c #959592",
"u 	c #848382",
"v 	c #797776",
"w 	c #494545",
"x 	c #5A5549",
"y 	c #39311E",
"z 	c #E8D98A",
"A 	c #DCC77B",
"B 	c #D9C786",
"C 	c #DCCB9A",
"D 	c #CCB48C",
"E 	c #564527",
"F 	c #D9D6D3",
"G 	c #7D817B",
"H 	c #8E918A",
"I 	c #6A6A65",
"J 	c #544C39",
"K 	c #5C5639",
"L 	c #817347",
"M 	c #E7C988",
"N 	c #EAD671",
"O 	c #DDC75A",
"P 	c #F5E49C",
"Q 	c #FFFCCB",
"R 	c #F3DEA9",
"S 	c #6F5731",
"T 	c #5C5B58",
"U 	c #9B9C9B",
"V 	c #EAE9E4",
"W 	c #54544C",
"X 	c #BCB58E",
"Y 	c #FFF192",
"Z 	c #DACA6B",
"` 	c #FFFFFC",
" .	c #E9D8B5",
"..	c #D4C7A5",
"+.	c #4B3E26",
"@.	c #858984",
"#.	c #8A8584",
"$.	c #82827D",
"%.	c #68583A",
"&.	c #FCE787",
"*.	c #F7DC79",
"=.	c #F6E07B",
"-.	c #FBF2AF",
";.	c #F9EFD5",
">.	c #FDF4DB",
",.	c #9D927C",
"'.	c #393637",
").	c #969996",
"!.	c #645648",
"~.	c #86796C",
"{.	c #9CA09F",
"].	c #7E7E80",
"^.	c #B6A47E",
"/.	c #FFFFFD",
"(.	c #29282A",
"_.	c #ACABAB",
":.	c #504E53",
"<.	c #B3B1AD",
"[.	c #A09B98",
"}.	c #665D52",
"|.	c #938D93",
"1.	c #736549",
"2.	c #55461D",
"3.	c #747154",
"4.	c #FDFDF0",
"5.	c #ABAAA5",
"6.	c #E3E2DE",
"7.	c #C3BDBC",
"8.	c #5F6360",
"9.	c #4E3B2B",
"0.	c #3A362A",
"a.	c #F7F5E9",
"b.	c #67655C",
"c.	c #837E77",
"d.	c #C4C2BC",
"e.	c #ECECEA",
"f.	c #CDCBCC",
"g.	c #B3B2B3",
"h.	c #847E82",
"i.	c #A5A3A5",
"j.	c #6F716C",
"k.	c #FCFDFC",
"l.	c #DBDAD3",
"m.	c #989489",
"n.	c #75756B",
"o.	c #7D8587",
"p.	c #9B9B95",
"q.	c #D4CED2",
"r.	c #8E8C8C",
"s.	c #DBD9DB",
"t.	c #E5DCD7",
"u.	c #948C84",
"v.	c #F2EFEF",
"w.	c #E1D9C9",
"x.	c #0B0201",
"y.	c #040200",
"z.	c #8E8E92",
"A.	c #8A8A84",
"B.	c #8B847C",
"C.	c #282619",
"D.	c #0B0B01",
"E.	c #1B1203",
"F.	c #968977",
"G.	c #A69675",
"H.	c #978969",
"I.	c #B7AA97",
"J.	c #F3F3EC",
"K.	c #EAE3D8",
"L.	c #140601",
"M.	c #C1B8B5",
"N.	c #FAF5E4",
"O.	c #251400",
"P.	c #FEFEF9",
"Q.	c #F2E9E5",
"R.	c #F6EAD5",
"S.	c #A49986",
"T.	c #B3A485",
"U.	c #846B3C",
"V.	c #FDF4C2",
"W.	c #C9BAA9",
"X.	c #AE8957",
"Y.	c #DDB477",
"Z.	c #B5ADA3",
"`.	c #C9B79A",
" +	c #C8AC72",
".+	c #E0B277",
"++	c #A49B8B",
"@+	c #F1CB9A",
"#+	c #7C6735",
"$+	c #86765F",
"%+	c #ECEBE7",
"&+	c #98753F",
"*+	c #B3976F",
"=+	c #523918",
"-+	c #CDC4B9",
";+	c #BCBCBC",
">+	c #AFB0B2",
",+	c #E3DFE0",
"'+	c #584B42",
")+	c #342517",
"!+	c #D8BD9B",
"~+	c #887359",
"{+	c #C6AC94",
"]+	c #E6CEB3",
"^+	c #4B3816",
"/+	c #B2AEAB",
"(+	c #3A2B22",
"_+	c #331D08",
":+	c #3B260D",
"<+	c #B29B86",
"[+	c #D7C7BC",
"}+	c #A5A29C",
"|+	c #746D67",
"1+	c #D5CAC3",
"2+	c #FBFFFF",
"3+	c #2A1E15",
"4+	c #45330F",
"5+	c #FBF7EA",
"6+	c #BDBAB4",
"7+	c #786958",
"8+	c #C4C4C3",
"9+	c #937E61",
"0+	c #90825B",
"a+	c #291A02",
"b+	c #FFFFFB",
"c+	c #B9B6B7",
"d+	c #ADA386",
"e+	c #FDFDF6",
"f+	c #FEFFFD",
"g+	c #9E9EA0",
"h+	c #F8F9F8",
"i+	c #FDFEFE",
"                                                                                                  ",
"                          .                                                                       ",
"                      + @ #                                                                       ",
"                    + $ % &                                                                       ",
"                  + * = - &                                   ;     >                             ",
"                  + , ' ' )                                         ! !                           ",
"                ~ * - { { ] &                 ^ /                 ; ( _ :                         ",
"                ~ $ < [ } | 1 ~ 2 3 4 5 6 7 8 9 0 a 3             + + ~ (                         ",
"                + b < { [ c d e f 6 6 g 6 3 h i j j k 7 l m       ) ] 1 * ~                       ",
"                  b < [ { n o p q r 7 7 s t u v j 3 w g x y     ) z A B ] *                       ",
"                  * C c n D E f q 7 7 6 u F G H I g p J K L L < M N O N P Q                       ",
"                    d R R S J x 7 7 6 T U V H G W r J K X , P z Y N O Z z Q `                     ",
"                    $  ...+.J w 6 5 7 @.#.$.u s g p r %.d n [ &.&.*.=.z -.;.;                     ",
"                      >.,.J p 7 5 6 '.s ).@.$.T w r !.+.= c &.&.&.&.} c Q ` ;                     ",
"                        ~.x w l 7 '.5 ).! {.].6 7 p p %.^.R [ } *.{ R 1 + /.:                     ",
"                      2 W l l '.'.(.6 #._.].v w :.l p J %.- c } A , >.~ (                         ",
"                      _.<.[.v }.5 5 T t a |.3 :.6 W r W J K 1.2.3.~ ( 4.                          ",
"                      5.6.h s 7.F $.@.t u a |.6 T 8.8.W g g 9.0.x a._ ;   :                       ",
"                      $.b.c.$.d.F G @.e.f.c.u 7.g.|.h.i.|.#.j.[.3 h k.                            ",
"                        l.m.n.J n.t o.U ).p.u h q.h.r.s.t.s u.v.i.F ;                             ",
"                          w.e x.y.(.z.A.p.A.s j.v |.#.B.c.~.~.m.!.e.                              ",
"                          w.x x.x.x.k @.n.I C.D.y.D.E.F.G.G.o H.I.J.                              ",
"                          K.e x.L.l M.N.m.# f y.D.x.O.R ' ] < R * P.                              ",
"                            . }.u.Q.R.S.X ) T.E.x.L.U.n P B < V.+                                 ",
"                          C.}.u.t.K.W.%.O., , - X.X.Y.{ M ' 1 ~ K.(                               ",
"                        I 0.M.M.Z.W.`.=  +-.] | | .+ +Y.{ ] ..u.r._                               ",
"                          h.t.Q.++T.C n c M n M M { { { @+#+$+S.p.v %+                            ",
"                        _.f.7.M.9.E C ' B  +M &+X.@+M *+#+=+^.1.e -+[.                            ",
"              h ;+>+g.;+,+e.t.t '+)+=+`.!+^.~+E =+{+]+]+{+=+^+G.G.,.Z.                            ",
"              f.i e.i s.6.V /+5.B.(+_+:+<+>.{+<+~.[+t.[+W.%.!+D *+R.(                             ",
"              h ;+e.i e.V V }+|+x ~.!.O.:+%. .]+1.I.-+1+<+E U.M R @ N.                            ",
"                >+2+i V i 6.}+p C.3+!.$+_+:+4+^++.K e ,.E ^+#+M n @ 5+;                           ",
"                s.h ! i 6.e.6+I x 3+)+7+7+_+_+_+:+^+`.]+T.^+L d , ..N.                            ",
"                  8+g.( V V 6.l.t.p )+)+~.$+!.O.:+9+d  .G.H.0+$ @ @ /.;                           ",
"                    h 5.! J.e.2 Q.~.(+3+x ~.w.<+a+a+7+H.$+T.`.H.R.b+; /.                          ",
"                        c+<.5.H 5.c.|+B.}.|+S.. d+)+)+7+e S.S.++N./.                              ",
"                          c+g n.A.m.B.A.x -+[+F.t.++7+b.Z.-+m.c.e+                                ",
"                            3 #.A.A.g 0.t d.M.++[+6+B.B./+/+<.c+_                                 ",
"                            $.'.g $.b.6 f.d.6+p.7.  u.I u c+s (._.f+                              ",
"                            <.t 8+8+U $.;+;+[.r.l.    i.3 u (.(.(.V                               ",
"                              t g.2 ;+u r.U r.g.        U 8+/+'.(.j.                              ",
"                                r.i.g.u g+j.s.          f._.;+_.'.i                               ",
"                                  z.U o.c+c+            g.#.c.v U t h+                            ",
"                                    ;+u z.s.          i.d.2 7.).r.).h                             ",
"                                                      H d.8+}+p.u 0 _.i+                          ",
"                                                      s @.r._._.;+h                               ",
"                                                                                                  ",
"                                                                                                  ",
"                                                                                                  "};
