/* XPM */
static char * texture_sprite_go_l_2_xpm[] = {
"49 49 220 2",
"  	c #FFFFFF",
". 	c #FCFCF5",
"+ 	c #FEFBEB",
"@ 	c #E7E2D9",
"# 	c #FFFBDD",
"$ 	c #DCD6B8",
"% 	c #FFFBE5",
"& 	c #FFFAD5",
"* 	c #FFF6DB",
"= 	c #EEE5C2",
"- 	c #E7D8B7",
"; 	c #B4B4B4",
"> 	c #9A9BA6",
", 	c #95949A",
"' 	c #989C96",
") 	c #FFF4CB",
"! 	c #EBD998",
"~ 	c #E4CC8D",
"{ 	c #F5E3B5",
"] 	c #DCD39D",
"^ 	c #E9E9E7",
"/ 	c #ABABAB",
"( 	c #74746D",
"_ 	c #777575",
": 	c #8E9198",
"< 	c #6A6B6A",
"[ 	c #4A4B44",
"} 	c #5A564B",
"| 	c #948A7A",
"1 	c #F8E597",
"2 	c #D9C66A",
"3 	c #E2CF70",
"4 	c #E5C983",
"5 	c #E8D8A9",
"6 	c #E5D29D",
"7 	c #FFFAC8",
"8 	c #D2D2CD",
"9 	c #4B4B4A",
"0 	c #8D918B",
"a 	c #FEFEFE",
"b 	c #7A7B84",
"c 	c #6F746D",
"d 	c #4B443A",
"e 	c #564B38",
"f 	c #524D33",
"g 	c #3B3615",
"h 	c #9A8B67",
"i 	c #F5D999",
"j 	c #F4DA89",
"k 	c #E0CC5B",
"l 	c #DBC756",
"m 	c #FFF4BA",
"n 	c #F7E9C6",
"o 	c #E9D59C",
"p 	c #FCEBB4",
"q 	c #454544",
"r 	c #8B8B8B",
"s 	c #8B8A94",
"t 	c #4B462C",
"u 	c #746745",
"v 	c #BCA47D",
"w 	c #F7E47A",
"x 	c #F7E46D",
"y 	c #F8E7A8",
"z 	c #F5DEA2",
"A 	c #ACAAA4",
"B 	c #45433C",
"C 	c #4E514B",
"D 	c #53524C",
"E 	c #848382",
"F 	c #7D7D7C",
"G 	c #6C6B72",
"H 	c #4A4539",
"I 	c #B9AA88",
"J 	c #FFF0A8",
"K 	c #F9E487",
"L 	c #EAD78B",
"M 	c #F1DBAB",
"N 	c #E3CCA9",
"O 	c #453E37",
"P 	c #555353",
"Q 	c #ECECEC",
"R 	c #A4A3A4",
"S 	c #7E8480",
"T 	c #5C5A59",
"U 	c #FBE8B6",
"V 	c #7D715B",
"W 	c #554D44",
"X 	c #D0CED1",
"Y 	c #83837C",
"Z 	c #8B7852",
"` 	c #FEE6AA",
" .	c #66583A",
"..	c #BEAA7C",
"+.	c #A6976A",
"@.	c #EEE3B1",
"#.	c #42361C",
"$.	c #48454B",
"%.	c #4E4A52",
"&.	c #524B54",
"*.	c #8A8A84",
"=.	c #949494",
"-.	c #69582A",
";.	c #F1E8D9",
">.	c #FDF5D4",
",.	c #C4B488",
"'.	c #363838",
").	c #FEFEFC",
"!.	c #3B3625",
"~.	c #686559",
"{.	c #BAB395",
"].	c #362D29",
"^.	c #938B8B",
"/.	c #8C8588",
"(.	c #524F4C",
"_.	c #625C53",
":.	c #7A7768",
"<.	c #736D65",
"[.	c #B1ADA8",
"}.	c #DEE1E6",
"|.	c #E5D9C6",
"1.	c #44382A",
"2.	c #3D3B40",
"3.	c #2A2623",
"4.	c #A39994",
"5.	c #66656B",
"6.	c #93928C",
"7.	c #9CA097",
"8.	c #BBB9B5",
"9.	c #7B7974",
"0.	c #B7B5A9",
"a.	c #BCBCBC",
"b.	c #5E605D",
"c.	c #9C9B9C",
"d.	c #E7E7E9",
"e.	c #827E7C",
"f.	c #F4F2ED",
"g.	c #877B6A",
"h.	c #655F4F",
"i.	c #AAA6A6",
"j.	c #DDDAD5",
"k.	c #CAC6C5",
"l.	c #F4EFF2",
"m.	c #DEDCDD",
"n.	c #8B837A",
"o.	c #6C694A",
"p.	c #877A58",
"q.	c #D6C5AC",
"r.	c #BEBDC5",
"s.	c #D6D4D5",
"t.	c #261B0B",
"u.	c #D2C390",
"v.	c #29271C",
"w.	c #0C0800",
"x.	c #0C0100",
"y.	c #140200",
"z.	c #878166",
"A.	c #1B0A03",
"B.	c #9EA18F",
"C.	c #2B1100",
"D.	c #9D977C",
"E.	c #191304",
"F.	c #968B84",
"G.	c #452B06",
"H.	c #AC8C53",
"I.	c #E3BD7E",
"J.	c #C6B598",
"K.	c #7A6739",
"L.	c #F4DDB9",
"M.	c #E7CB9C",
"N.	c #C39D5E",
"O.	c #D0AA63",
"P.	c #A9A499",
"Q.	c #C3AA7B",
"R.	c #6D522F",
"S.	c #B19D59",
"T.	c #B5A670",
"U.	c #5F4709",
"V.	c #D7BE86",
"W.	c #D1BC97",
"X.	c #AB9874",
"Y.	c #887C73",
"Z.	c #39250D",
"`.	c #876F34",
" +	c #DFCDAE",
".+	c #AAA28B",
"++	c #583A18",
"@+	c #A18560",
"#+	c #AEAEB1",
"$+	c #CCC9C5",
"%+	c #281E16",
"&+	c #A39787",
"*+	c #756657",
"=+	c #352818",
"-+	c #9C7F61",
";+	c #EBE6E4",
">+	c #2C2214",
",+	c #4D2F13",
"'+	c #F3EDEC",
")+	c #928476",
"!+	c #775D46",
"~+	c #E5E4E5",
"{+	c #D8C899",
"]+	c #FEF5E4",
"^+	c #C4BEB8",
"/+	c #B2AB9A",
"(+	c #C7C4BB",
"_+	c #999887",
":+	c #E1DED7",
"<+	c #231B0E",
"[+	c #E9E6CE",
"}+	c #B8B6B6",
"|+	c #C5C4C2",
"1+	c #1E1711",
"2+	c #D2CDCA",
"3+	c #CBCBCA",
"4+	c #E8E6E9",
"5+	c #E0DEDF",
"6+	c #FFFDFF",
"7+	c #F4F4F4",
"                                                                                                  ",
"                                                                                                  ",
"                                                                                                  ",
"                                                                                                  ",
"                                                          .                                       ",
"              +                                           . .                                     ",
"              @                                           + +                                     ",
"            # $ %                                       % & & *                                   ",
"            = - #                   ; > , '             ) ! ~ {                                   ",
"          # - ] &             ^ / ( _ : > < [ } |     ) 1 2 3 4 {                                 ",
"          & 5 6 7         8 ( 9 [ 0 a : b c d e f g h i j k l 2 m                                 ",
"          n o ! p       ' [ 9 q < r / s b q } t u v 6 1 w x x 3 y                                 ",
"        + { z 1 ! )   A B C D q E F E r G 9 H e I 5 J K w x w L 7                                 ",
"        + M i 1 1 N $ O P B q P _ Q R S T D D e I p 1 K K K L p #                                 ",
"          M L K 1 U V W q D C q r X R Y D [ } e Z ` j K K ~ { *                                   ",
"          ) ! L 1 5  .d D q P [ r E r Y [ D B W e ..! 1 ! +.* .                                   ",
"          * @.! y ] #.W $.%.&.B *.=.Y Y D [ [ D H e h +.-.g ;.                                    ",
"          + >.5 ] ,.t W &.&.$.'.Y ).A Y 9 [ C q D W e e g !.~.                                    ",
"            + >.= {.t W $.%.$.].< A ^./.%.&.$.9 (.T _.:.<.[.( }.                                  ",
"              + + |.1.[ P 2.3.'.E ^.4.s G 5.5.E 6.7.8.9.Y @ 0.a.                                  ",
"                . 8.[ D T q [ b.E ^./., > c.d.e.Y a.f.<.g.| h.'                                   ",
"                  / i.; e.c.j.Y 6.k.l.r r ; m.^.6.n.o. .p.h q.                                    ",
"                  r.s.d.F 6.f.6.E , i.S =.9.P } 1.t.u.@.{ { -                                     ",
"                    9 T 9.~._.~.<., : 7.c v.w.x.x.y.5 y ! ] n                                     ",
"                        q.z.x.x.A.G r B.g.h.x.y.A.C.i i ! M                                       ",
"                        $ D.x.y.x.E.F.o.= - e A.G.H.I.4 ` &                                       ",
"                          J.A.y.A.E.u K.+.n L.L.M.N.O.4 ` J.P.;                                   ",
"                          = J. . .u.] -.G.{ 7 m ` i j ~ 6 h [.Y                                   ",
"                          - h v U p m ` ` y ` ~ H.i i Q.Z p.:.B.7.                                ",
"                        ;.u R.5 U z 4 ` 4 S.L T.U.V.W.5 X.h D.0.P.                                ",
"                        Y.Z.u v M.M.`.M.! J `.S.K.L.q. +W.,.p..+0.                                ",
"                    ^.[.e #.X. .G.++@+,.m y L V.K.J. +N W.M h q.                                  ",
"                  #+$+*.%+t &+*+=+Z.-+X.6 o o R.++R.-+Q.M M ,.p.                                  ",
"                a.;+i.D ].d F.1.>+=+g.Z U M N R.,+,+v M.p p u.                                    ",
"                ; '+A } | )+F.*+*+=+V z.L.n - L.!+I J...{ 5 {                                     ",
"              ~+8 j.A W g.| &+)+&+*+)+| n = * * |.g..+I +.{+5                                     ",
"              8.@ 8 Y H =+*+)+1.e 3.F.&++ % ]++ ^+)+/+{.I X.=                                     ",
"          (+r Y [.P._+O =+g.g.=+>+O n.(++ /+4.P.e.n.4.D.p.$ $ {.| *.r /                           ",
"          _ 3.A j.:+d >+<+t.>+E.%+].].<.:.~.9.( E c.[.0._+[+D.0.8.[./ =.}+                        ",
"          8 c._ |+8.(.B %+%+<+t.<+1+%+3.v.v.3.3.q =.8.A _+<+>+=+^+|+}+}+_ =.E /                   ",
"              / @ $+2+'+<._.=+!.n._ 2+0.[.~.~.< _ b F Y <.3.v.1+A (+k.R , , b ,                   ",
"              }+^ ;+}+. j.9.<.Y.F.;+      4.3+; E T : /.$+      j.#+, _ E , , |+                  ",
"            / 4+m.5+k.2+).2+(+;+).        A 8.; =.X                   =.3+/ /.                    ",
"          / 3+4+Q '+~+8./ a.^+|+        A *.< =.F 3+                  ; 3+R /                     ",
"        i.m.Q 5+Q m.Q ~+5+Q 4+}+      A k.(+/ e.}+c.                  =.|+=.d.                    ",
"        }+8.6+Q ;+~+~+~+7+#+3+|+    i.}+a.}+R *.6.'                   }+c.R                       ",
"          |+}+^ Q a d.a Q c.~+      #+=.c.R R #+^+3+                    s.s.                      ",
"              s.c./ [.; 3+                                                                        ",
"                                                                                                  "};
