/* XPM */
static char *ai7nu_ndfqe[] = {
/* columns rows colors chars-per-pixel */
"52 52 17 1 ",
"  c black",
". c #261911",
"X c #3B2C23",
"o c #67140D",
"O c #4C3B2F",
"+ c #3E463E",
"@ c #764E34",
"# c #4A5455",
"$ c #951D12",
"% c #C22618",
"& c #E53B2B",
"* c #9B5C33",
"= c #69837B",
"- c #A8B9B8",
"; c #D5DDDD",
": c #F4F4F4",
"> c white",
/* pixels */
">>>>>>>>>>>>>>>>>>>>>>>>>>>>>>>>>>>>>>>>>>>>>>>>>>>>",
">>>>>>>>>>>>>>>>>>>>>>>>>>>>>>>>>>>>>>>>>>>>>>>>>>>>",
">>>>>>>>>>>>>>>>>>>>>>>>>>>>>>>>>>>>>>>>>>>>>>>>>>>>",
">>>>>>>>>>>>>>>>>>>>>>>>>>>>>>>>>>>>>>>>>>>>>>>>>>>>",
">>>>>>>>>>>>>>>>>>>>===========>>>>>>>>>>>>>>>>>>>>>",
">>>>>>>>>>>>>>>>>>==--;;;;;;;--==>>>>>>>>>>>>>>>>>>>",
">>>>>>>>>>>>>>>>>=:::::::::::::::=>>>>>>>>>>>>>>>>>>",
">>>>>>>>>>>>>>>>=:::::::::::::::::=>>>>>>>>>>>>>>>>>",
">>>>>>>>>>>>>>>=:::::::::::::::::::=>>>>>>>>>>>>>>>>",
">>>>>>>>>>>>>>=:::::::::::::::::::::=>>>>>>>>>>>>>>>",
">>>>>>>>>>>>>>=:::::::::::::::::::::=>>>>>>>>>>>>>>>",
">>>>>>>>>>>>>=--:::::::::::::::::::--=>>>>>>>>>>>>>>",
">>>>>>>>>>>>>=---:::::::::::::::::---=>>>>>>>>>>>>>>",
">>>>>>>>>>>>>=--;:::::::::::::::::;--=>>>>>>>>>>>>>>",
">>>>>>>>>>>>>=--;;:::::::::::::::;;--=>>>>>>>>>>>>>>",
">>>>>>>>>>>>>=--;;:::::::::::::::;;--=>>>>>>>>>>>>>>",
">>>>>>>>>>>>>#---;;:::::::::::::;;---#>>>>>>>>>>>>>>",
">>>>>>>>>>>>>#=------;:::::::;------=#>>>>>>>>>>>>>>",
">>>>>>>>>>>>>##--;::;--;:::;--;::;--##>>>>>>>>>>>>>>",
">>>>>>>>>>>>>##=-=###=-;;;;;-=###=-=##>>>>>>>>>>>>>>",
">>>>>>>>>>>>>##==#+++#-;;;;;-#+++#==##>>>>>>>>>>>>>>",
">>>>>>>>>>>>>>#=#++++#=;;;;;=#++++#=#>>>>>>>>>>>>>>>",
">>>>>>>>>>>>>>#=#++++#=;;;;;=#++++#=#>>>>>>>>>>>>>>>",
">>>>>>>>>>>>>> ==#+++#-;;;;;-#+++#== >>>>>>>>>>>>>>>",
">>>>>>>>>>>>>> =-=###=;:;=;:;=###=-= >>>>>>>>>>>>>>>",
">>>>>>>>>>>>>>> --;;::::=#=::::;;-- >>>>>>>>>>>>>>>>",
">>>>>>>>>>>>>>> =-;;;:::###:::;;;-= >>>>>>>>>>>>>>>>",
">>>>>>>>>>>>>>>> ++#=;;;;;;;;;=#++ >>>>>>>>>>>>>>>>>",
">>>>>>>>>>>>>>>>> =+#;#:=:=:#;#+= >>>>>>>>>>>>>>>>>>",
">>>>>>>>>>>>>>>>>> =-##=#=#=##-= >>>>>>>>>>>>>>>>>>>",
">>>>>>>>>>>>>>>>###  -#;=;=;#-  ###>>>>>>>>>>>>>>>>>",
">>>>>>>>>>>>>>>#-:=#-         -#=:-#>>>>>>>>>>>>>>>>",
">>>>>>>>>>>>>>>#;::=#-#=---=#-#=::;#>>>>>>>>>>>>>>>>",
">>>>>>>>>>>>>>>#;- #-:::=-=:::-# -;#>>>>>>>>>>>>>>>>",
">>>>>>>>>>>>>>#-= $#####=-=#####$ #-#>>>>>>>>>>>>>>>",
">>>>>>>>>>>>>>#:=>$#-::;#-#;::-#$>>=-#>>>>>>>>>>>>>>",
">>>>>>>>>>>>>#:#>>$#####=-=#####$>>>#-#>>>>>>>>>>>>>",
">>>>>>>>>>>>#;=>>$$$#=--XXXXX=#$$$>>=--->>>>>>>>>>>>",
">>>>>>>>>>>>#;=>>$$XXXXX.@**@...$$>>#=-#>>>>>>>>>>>>",
">>>>>>>>>>>  # #>$X@****@..***@O.$>= =  >>>>>>>>>>>>",
">>>>>>>>>>>#= > $$.XXXXX.@@..@OO.$$ > -#>>>>>>>>>>>>",
">>>>>>>>>>>>  >%$$.OO.@O.@**@.   $$%>  >>>>>>>>>>>>>",
">>>>>>>>>>>>>>o%%$ .O.*@.OO   # $$%%o>>>>>>>>>>>>>>>",
">>>>>>>>>>>>>>o&%%$  .**.  $ ;#$$%%&o>>>>>>>>>>>>>>>",
">>>>>>>>>>>>>>    $ =.@  $$$=;#$$    >>>>>>>>>>>>>>>",
">>>>>>>>>>>>>>>>>>   .  > >  =   >>>>>>>>>>>>>>>>>>>",
">>>>>>>>>>>>>>>>>>>#= ;=#>#=;;=#>>>>>>>>>>>>>>>>>>>>",
">>>>>>>>>>>>>>>>>>>>>>>>>>>>>>>>>>>>>>>>>>>>>>>>>>>>",
">>>>>>>>>>>>>>>>>>>>>>>>>>>>>>>>>>>>>>>>>>>>>>>>>>>>",
">>>>>>>>>>>>>>>>>>>>>>>>>>>>>>>>>>>>>>>>>>>>>>>>>>>>",
">>>>>>>>>>>>>>>>>>>>>>>>>>>>>>>>>>>>>>>>>>>>>>>>>>>>",
">>>>>>>>>>>>>>>>>>>>>>>>>>>>>>>>>>>>>>>>>>>>>>>>>>>>"
};
