/* XPM */
static char * texture_sprite_go_r_1_gimp_xpm[] = {
"49 49 232 2",
"  	c #FFFFFF",
". 	c #DAD2C5",
"+ 	c #DAD7BB",
"@ 	c #ECE4C9",
"# 	c #FFFDE3",
"$ 	c #FDF6D5",
"% 	c #D5CCA7",
"& 	c #F7EBC9",
"* 	c #FCFFFF",
"= 	c #FFFFFE",
"- 	c #E4CA98",
"; 	c #E7D7A9",
"> 	c #FFFBDB",
", 	c #FEFEFF",
"' 	c #FBF6C6",
") 	c #EAD59D",
"! 	c #F8E8B7",
"~ 	c #FEFFFE",
"{ 	c #FDFFFC",
"] 	c #FDFDF4",
"^ 	c #C2C2C3",
"/ 	c #BDBCBC",
"( 	c #FFF3B8",
"_ 	c #F8D998",
": 	c #FDFDEC",
"< 	c #6A6668",
"[ 	c #999597",
"} 	c #868789",
"| 	c #BFBEC3",
"1 	c #AEAEB0",
"2 	c #4D4C4C",
"3 	c #545353",
"4 	c #444343",
"5 	c #413F42",
"6 	c #CACAC6",
"7 	c #FDF5CC",
"8 	c #FDE2AB",
"9 	c #F4DA87",
"0 	c #FFE59D",
"a 	c #EBDBA0",
"b 	c #E7E1DD",
"c 	c #524C4D",
"d 	c #625F64",
"e 	c #7B7A7D",
"f 	c #E4E5E4",
"g 	c #D4D4D3",
"h 	c #4C4C44",
"i 	c #3D4029",
"j 	c #898575",
"k 	c #ECE0B4",
"l 	c #ECDB9B",
"m 	c #F6E9C3",
"n 	c #D9C786",
"o 	c #DCC77B",
"p 	c #E8D98A",
"q 	c #39311E",
"r 	c #5A5549",
"s 	c #494545",
"t 	c #797776",
"u 	c #848382",
"v 	c #959592",
"w 	c #737372",
"x 	c #48463A",
"y 	c #4E524E",
"z 	c #534C44",
"A 	c #8E815C",
"B 	c #F8E4A7",
"C 	c #FFFCCB",
"D 	c #F5E49C",
"E 	c #EAD671",
"F 	c #DDC75A",
"G 	c #E7C988",
"H 	c #817347",
"I 	c #5C5639",
"J 	c #544C39",
"K 	c #6A6A65",
"L 	c #8E918A",
"M 	c #7D817B",
"N 	c #D9D6D3",
"O 	c #564527",
"P 	c #CCB48C",
"Q 	c #DCCB9A",
"R 	c #FFFFFC",
"S 	c #DACA6B",
"T 	c #FFF192",
"U 	c #BCB58E",
"V 	c #54544C",
"W 	c #EAE9E4",
"X 	c #9B9C9B",
"Y 	c #5C5B58",
"Z 	c #6F5731",
"` 	c #F3DEA9",
" .	c #F9EFD5",
"..	c #FBF2AF",
"+.	c #F6E07B",
"@.	c #F7DC79",
"#.	c #FCE787",
"$.	c #68583A",
"%.	c #82827D",
"&.	c #8A8584",
"*.	c #858984",
"=.	c #4B3E26",
"-.	c #D4C7A5",
";.	c #E9D8B5",
">.	c #645648",
",.	c #969996",
"'.	c #393637",
").	c #9D927C",
"!.	c #FDF4DB",
"~.	c #FFFFFD",
"{.	c #B6A47E",
"].	c #7E7E80",
"^.	c #9CA09F",
"/.	c #86796C",
"(.	c #504E53",
"_.	c #ACABAB",
":.	c #29282A",
"<.	c #FDFDF0",
"[.	c #747154",
"}.	c #55461D",
"|.	c #736549",
"1.	c #938D93",
"2.	c #665D52",
"3.	c #A09B98",
"4.	c #B3B1AD",
"5.	c #F7F5E9",
"6.	c #3A362A",
"7.	c #4E3B2B",
"8.	c #5F6360",
"9.	c #C3BDBC",
"0.	c #E3E2DE",
"a.	c #ABAAA5",
"b.	c #FCFDFC",
"c.	c #6F716C",
"d.	c #A5A3A5",
"e.	c #847E82",
"f.	c #B3B2B3",
"g.	c #837E77",
"h.	c #CDCBCC",
"i.	c #ECECEA",
"j.	c #C4C2BC",
"k.	c #67655C",
"l.	c #F2EFEF",
"m.	c #948C84",
"n.	c #E5DCD7",
"o.	c #DBD9DB",
"p.	c #8E8C8C",
"q.	c #D4CED2",
"r.	c #9B9B95",
"s.	c #7D8587",
"t.	c #75756B",
"u.	c #989489",
"v.	c #DBDAD3",
"w.	c #8B847C",
"x.	c #8A8A84",
"y.	c #8E8E92",
"z.	c #040200",
"A.	c #0B0201",
"B.	c #E1D9C9",
"C.	c #F3F3EC",
"D.	c #B7AA97",
"E.	c #978969",
"F.	c #A69675",
"G.	c #968977",
"H.	c #1B1203",
"I.	c #0B0B01",
"J.	c #282619",
"K.	c #FEFEF9",
"L.	c #251400",
"M.	c #FAF5E4",
"N.	c #C1B8B5",
"O.	c #140601",
"P.	c #EAE3D8",
"Q.	c #FDF4C2",
"R.	c #846B3C",
"S.	c #B3A485",
"T.	c #A49986",
"U.	c #F6EAD5",
"V.	c #F2E9E5",
"W.	c #DDB477",
"X.	c #AE8957",
"Y.	c #C9BAA9",
"Z.	c #C8AC72",
"`.	c #E0B277",
" +	c #C9B79A",
".+	c #B5ADA3",
"++	c #ECEBE7",
"@+	c #86765F",
"#+	c #7C6735",
"$+	c #F1CB9A",
"%+	c #A49B8B",
"&+	c #CDC4B9",
"*+	c #523918",
"=+	c #B3976F",
"-+	c #98753F",
";+	c #4B3816",
">+	c #C6AC94",
",+	c #E6CEB3",
"'+	c #887359",
")+	c #D8BD9B",
"!+	c #342517",
"~+	c #584B42",
"{+	c #E3DFE0",
"]+	c #BCBCBC",
"^+	c #AFB0B2",
"/+	c #D7C7BC",
"(+	c #B29B86",
"_+	c #3B260D",
":+	c #331D08",
"<+	c #3A2B22",
"[+	c #B2AEAB",
"}+	c #D5CAC3",
"|+	c #746D67",
"1+	c #A5A29C",
"2+	c #FBF7EA",
"3+	c #45330F",
"4+	c #2A1E15",
"5+	c #FBFFFF",
"6+	c #786958",
"7+	c #BDBAB4",
"8+	c #90825B",
"9+	c #937E61",
"0+	c #C4C4C3",
"a+	c #FFFFFB",
"b+	c #291A02",
"c+	c #ADA386",
"d+	c #B9B6B7",
"e+	c #FDFDF6",
"f+	c #FEFFFD",
"g+	c #9E9EA0",
"h+	c #F8F9F8",
"i+	c #FDFEFE",
"                                                                                                  ",
"                                                                      .                           ",
"                                                                      + @ #                       ",
"                                                                      $ % & #                     ",
"                            *     =                                   $ - ; > #                   ",
"                          , ,                                         ' ) ) ! #                   ",
"                        ~ { ] =                 ^ /                 $ ( _ _ - > :                 ",
"                        ] : # #             < [ } | 1 2 3 4 5 < 6 : 7 8 9 0 a & :                 ",
"                      : > 7 ( '       b c 2 d e e f g < 3 h 3 3 i j k l 0 _ a m #                 ",
"                      > ( n o p '     q r h s < e t u v w 2 2 x y z A B _ 0 a m                   ",
"                      C D E F E G a H H I J z h K L M N u 3 2 2 y i O P B l Q >                   ",
"                    R C p S F E T p D ! U I J x V M L W X Y 3 2 2 r J Z ` ` k                     ",
"                    =  ...p +.@.#.#.0 B k $.x z h w u %.&.*.2 4 3 s J =.-.;.&                     ",
"                    = R C l 9 #.#.#.#.l ; =.>.x s Y %.*.,.w '.3 4 2 z J ).!.                      ",
"                    ~ ~.# 7 ` _ @.9 0 ` {.$.z z 2 3 ].^., ,.4 '.2 c s r /.                        ",
"                        ] : !.! o 9 l - $.J z c (.s t ]._.&.3 :.'.'.c c V 6                       ",
"                          <.] : [.}.|.I J V x V 3 (.< 1.[ v Y 4 4 2.t 3.4._.                      ",
"                      ~   = { 5.r 6.7.h h V 8.8.Y 3 1.[ u v *.%.N 9.w g 0.a.                      ",
"                            b.g < 3.c.&.1.d.e.1.f.9.u g.h.i.*.M N j.%.g.k.%.                      ",
"                            = N d.l.m.w n.o.p.e.q.g u r.,.X s.v t.J t.u.v.                        ",
"                              i.>.u././.g.w.&.1.t c.w x.r.x.y.:.z.A.j B.                          ",
"                              C.D.E.A F.F.G.H.I.z.I.J.K t.*.d A.A.A.r B.                          ",
"                              K.> ` a ( ) ` L.A.I.z.i + u.M.N.c O.A.j P.                          ",
"                                # Q.a n D B R.O.A.H.S.' U T.U.V.m.2..                             ",
"                              ] P.: 7 ) G _ W.X.X.- ! ! L.$.Y.P.n.m.2.J.                          ",
"                              { p.m.-.( _ W.Z.`.8 8 ( ..Z.;  +Y..+N.N.6.K                         ",
"                            ++t r.T.@+#+$+_ _ _ G G B G l B Q S.%+V.n.e.                          ",
"                            3.&+j |.{.*+#+=+G $+X.-+G Z.n ) Q O 7.N.9.h._.                        ",
"                            .+).F.F.;+*+>+,+,+>+*+O '+{.)+ +*+!+~+v n.i.{+]+f.^+]+g               ",
"                            ] U.=+P )+$.Y./+n./+/.(+>+!.(+_+:+<+w.a.[+W 0.o.f i.f h.              ",
"                            M.@ ` G R.O (+}+&+D.|.,+;.$._+L.>./.r |+1+W W i.f i.]+g               ",
"                          = 2+@ B G #+;+O ).j I =.;+3+_+:+@+>.4+J.z 1+0.f W f 5+^+                ",
"                            M.-.! k H ;+S.,+ +;+_+:+:+:+6+6+!+4+r K 7+i.0.f , g o.                ",
"                          = ~.@ @ & 8+E.F.;.k 9+_+L.>.@+/.!+!+z n.v.0.W W ] f.0+                  ",
"                          ~.= a+U.E. +S.@+E.6+b+b+(+B./.r 4+<+/.V.6 i.C., a.g                     ",
"                              ~.M.%+T.T.j 6+!+!+c+. T.|+2.w.|+g.a.L a.4.d+                        ",
"                                e+g.u.&+.+k.6+%+n.G./+&+r x.w.u.x.t.h d+                          ",
"                                { d+4.[+[+w.w.7+/+%+N.j.v 6.h x.x.&.<                             ",
"                              f+_.:.w d+u K m.  9.r.7+j.h.3 k.%.h '.%.                            ",
"                              W :.:.:.u < d.    v.p.3.]+]+%.X 0+0+v 4.                            ",
"                              c.:.'.[+0+X         f.p.X p.u ]+6 f.v                               ",
"                              f '._.]+_.h.          o.c.g+u f.d.p.                                ",
"                            h+v X t g.&.f.            d+d+s.X y.                                  ",
"                            g ,.p.,.9.6 j.d.          o.y.u ]+                                    ",
"                          i+_.} u r.1+0+j.L                                                       ",
"                              g ]+_._.p.*.w                                                       ",
"                                                                                                  ",
"                                                                                                  ",
"                                                                                                  "};
